<?xml version="1.0" standalone="no"?>
<!DOCTYPE svg PUBLIC "-//W3C//DTD SVG 20010904//EN"
 "http://www.w3.org/TR/2001/REC-SVG-20010904/DTD/svg10.dtd">
<svg version="1.0" xmlns="http://www.w3.org/2000/svg"
 width="1032.000000pt" height="1032.000000pt" viewBox="0 0 1032.000000 1032.000000"
 preserveAspectRatio="xMidYMid meet">
<metadata>
Created by potrace 1.14, written by Peter Selinger 2001-2017
</metadata>
<g transform="translate(0.000000,1032.000000) scale(0.100000,-0.100000)"
fill="#000000" stroke="none">
<path d="M4520 9360 c-7 -13 -21 -20 -39 -20 -15 0 -56 -9 -90 -20 -34 -12
-66 -18 -72 -15 -5 4 -16 2 -23 -5 -8 -6 -24 -13 -37 -15 -13 -3 -29 -11 -36
-18 -10 -10 -29 -11 -76 -6 -65 8 -81 5 -74 -15 11 -27 -12 -38 -89 -45 -65
-5 -79 -9 -79 -23 0 -24 -48 -97 -63 -98 -7 0 -22 5 -32 10 -26 14 -41 -17
-41 -80 0 -16 -13 -36 -34 -55 -78 -68 -98 -95 -102 -133 -2 -22 -16 -52 -33
-74 -21 -25 -30 -48 -30 -72 0 -25 -6 -38 -20 -46 -16 -9 -19 -19 -16 -61 2
-28 8 -55 14 -61 10 -10 5 -76 -8 -93 -4 -5 -10 -43 -14 -83 -6 -74 -1 -93 36
-137 17 -21 18 -22 18 -55 0 -13 14 -27 40 -40 42 -21 51 -43 24 -58 -24 -13
-10 -42 39 -80 23 -18 56 -44 73 -57 38 -30 41 -30 47 -7 3 11 5 7 6 -10 1
-25 50 -78 72 -78 5 0 8 -10 6 -22 -2 -19 3 -23 23 -22 14 0 37 4 53 9 24 6
27 5 27 -18 0 -35 17 -44 85 -46 35 -1 66 -7 74 -15 11 -12 20 -12 55 0 22 7
72 16 109 20 59 5 69 9 77 28 5 13 17 27 27 31 47 19 77 24 88 15 15 -12 95
61 95 86 0 12 6 15 22 11 20 -6 42 3 108 40 14 8 33 17 43 20 14 4 17 12 12
33 -5 24 -1 30 39 54 49 28 54 40 31 69 -19 26 -1 75 28 79 23 3 25 16 12 70
-6 23 -2 29 24 42 37 19 40 47 9 69 -22 15 -22 16 -4 29 32 25 17 52 -34 58
l-45 5 3 48 c3 48 -10 61 -35 36 -8 -8 -16 -5 -29 9 -34 37 -41 48 -62 94 -24
55 -38 65 -52 39 -10 -19 -12 -19 -63 -4 -41 13 -92 16 -236 15 -101 -1 -192
-4 -202 -7 -14 -5 -19 -16 -19 -44 0 -31 -8 -44 -50 -86 -55 -54 -58 -67 -33
-120 20 -42 78 -82 87 -59 3 8 16 14 28 14 14 0 34 13 51 36 25 30 31 33 44
22 13 -10 17 -10 20 0 7 18 162 16 198 -2 15 -8 33 -12 40 -10 7 3 27 -15 46
-40 32 -45 52 -56 64 -36 8 13 35 13 35 1 0 -5 -9 -13 -20 -16 -23 -7 -26 -36
-8 -65 11 -16 9 -24 -13 -47 -27 -30 -54 -89 -64 -140 -7 -36 -9 -37 -34 -24
-22 12 -37 3 -50 -31 -9 -24 -15 -27 -47 -25 -33 2 -38 -1 -44 -23 -7 -29 -31
-35 -173 -46 -79 -5 -101 -4 -115 8 -19 17 -76 38 -103 38 -10 0 -39 20 -63
45 -25 25 -55 45 -66 45 -18 0 -20 4 -14 35 10 57 -2 84 -49 105 -23 11 -53
28 -66 40 -22 19 -22 23 -11 53 8 17 19 39 27 48 18 22 16 42 -7 62 -11 9 -20
22 -20 29 0 43 31 149 54 182 25 37 26 47 9 92 -2 6 23 28 56 50 45 28 60 44
57 57 -3 10 9 33 26 53 16 18 27 34 24 34 -13 0 24 58 41 65 10 4 45 11 78 16
122 19 127 21 133 41 3 15 10 18 28 14 33 -9 54 3 54 30 0 25 14 32 25 13 4
-6 14 -8 23 -4 8 3 31 0 51 -6 32 -11 70 -14 124 -10 12 1 17 10 18 34 l1 32
9 -32 c7 -26 15 -33 34 -33 13 0 27 5 30 11 5 7 12 6 23 -4 10 -8 32 -18 50
-22 17 -3 32 -10 32 -13 1 -4 15 -24 33 -45 l33 -38 45 15 c55 19 60 20 53 2
-3 -8 1 -34 10 -58 13 -38 18 -43 43 -42 24 1 32 -4 41 -28 7 -20 8 -38 1 -54
-19 -51 -13 -63 31 -61 21 1 42 -2 46 -5 10 -11 -6 -28 -27 -28 -17 0 -19 -5
-14 -37 16 -93 24 -111 56 -122 24 -8 28 -14 21 -28 -5 -10 -7 -54 -5 -98 4
-66 9 -83 28 -103 32 -32 38 -71 15 -103 -20 -29 -40 -91 -40 -129 0 -15 -11
-36 -28 -50 -20 -18 -32 -42 -41 -84 -13 -60 -82 -165 -122 -186 -25 -14 -24
-37 1 -52 28 -18 25 -38 -14 -80 -33 -36 -68 -53 -96 -46 -8 2 -20 -14 -29
-41 -16 -43 -25 -51 -103 -96 -16 -9 -28 -22 -28 -31 0 -8 -15 -31 -34 -49
-27 -29 -40 -35 -75 -35 -28 0 -41 -4 -41 -13 0 -19 -33 -47 -66 -56 -19 -5
-31 -16 -34 -32 -3 -13 -10 -33 -17 -44 -10 -17 -14 -18 -38 -7 -31 14 -40 10
-60 -28 -8 -16 -24 -31 -35 -35 -11 -3 -20 -12 -20 -19 0 -19 -44 -39 -87 -40
-36 -1 -38 -3 -41 -38 -3 -37 -4 -38 -43 -38 -22 0 -52 -6 -67 -14 -15 -7 -50
-19 -79 -25 -28 -7 -66 -24 -85 -38 -44 -33 -85 -54 -117 -60 -14 -2 -33 -10
-41 -18 -22 -20 -134 -55 -175 -55 -19 0 -35 -4 -35 -9 0 -15 -39 -24 -105
-26 -65 -2 -165 -15 -165 -22 0 -2 5 -13 10 -24 16 -29 -4 -57 -51 -69 -23 -6
-47 -9 -54 -6 -8 3 -33 -11 -57 -29 -24 -19 -47 -35 -53 -35 -5 0 -17 -13 -26
-28 -13 -23 -24 -29 -53 -30 -24 -1 -48 -11 -68 -27 -20 -17 -37 -24 -50 -19
-11 3 -18 2 -16 -2 7 -12 -23 -39 -42 -38 -21 0 -60 -17 -60 -27 0 -5 -7 -6
-15 -3 -20 8 -45 -13 -45 -37 0 -11 -7 -19 -15 -19 -8 0 -19 -9 -25 -20 -11
-21 -40 -28 -40 -10 0 6 -9 10 -20 10 -23 0 -37 -43 -47 -137 -3 -35 -9 -63
-14 -63 -12 0 -80 -61 -117 -105 -8 -9 -15 -26 -16 -39 -2 -13 -19 -50 -39
-82 -31 -50 -36 -67 -34 -110 1 -39 -3 -57 -17 -73 -12 -13 -17 -29 -14 -46 6
-27 -6 -40 -34 -40 -19 0 -61 -73 -88 -152 -14 -43 -15 -54 -4 -65 16 -16 7
-57 -12 -59 -8 -1 -19 -2 -26 -3 -7 0 -17 -17 -22 -36 -6 -19 -22 -45 -36 -57
-31 -25 -83 -126 -103 -198 -10 -35 -20 -51 -33 -54 -38 -7 -45 -22 -42 -85
l3 -60 -42 -9 c-42 -8 -43 -9 -44 -50 -1 -84 -12 -122 -38 -125 -22 -4 -23 -7
-18 -61 3 -40 1 -63 -9 -76 -8 -10 -14 -35 -14 -54 0 -46 -18 -111 -31 -111
-5 0 -14 -20 -21 -44 -6 -25 -15 -43 -20 -40 -4 3 -8 -10 -8 -28 0 -22 3 -28
9 -20 14 22 34 -41 27 -85 -4 -21 -3 -69 2 -106 7 -53 5 -87 -9 -150 -22 -101
-23 -137 -5 -163 14 -20 22 -59 46 -229 6 -44 13 -91 15 -104 2 -13 -2 -36
-10 -52 -17 -31 -20 -99 -6 -99 9 0 51 -117 51 -143 0 -8 11 -22 25 -31 30
-19 31 -37 8 -78 -18 -29 -18 -30 6 -49 18 -15 25 -32 27 -59 2 -37 53 -124
91 -155 13 -11 33 -110 33 -168 0 -34 6 -45 45 -81 46 -44 55 -73 36 -121 -6
-14 -2 -28 10 -47 11 -14 19 -29 19 -32 0 -4 9 -16 19 -27 11 -12 22 -36 25
-54 4 -18 16 -45 27 -59 11 -14 18 -26 15 -26 -3 0 6 -16 19 -36 14 -20 25
-42 25 -49 0 -27 82 -105 123 -117 23 -6 55 -20 70 -31 25 -17 28 -24 22 -56
-5 -32 -1 -43 32 -84 34 -42 42 -47 80 -47 l42 0 -2 -42 -2 -43 54 -5 c30 -3
56 -11 58 -16 10 -29 91 -149 100 -147 6 1 16 -9 23 -23 17 -31 59 -43 72 -21
7 14 14 12 53 -15 41 -29 45 -36 45 -72 0 -26 -11 -62 -30 -98 -21 -39 -30
-73 -32 -112 -2 -34 -7 -56 -14 -56 -23 0 -36 -31 -39 -90 -1 -33 -9 -70 -18
-83 -8 -13 -15 -39 -15 -58 0 -19 -10 -60 -22 -92 -15 -40 -21 -76 -19 -115 1
-31 -1 -74 -5 -94 -5 -22 -3 -59 4 -90 6 -29 13 -63 16 -76 3 -13 12 -22 23
-22 10 0 30 -9 44 -20 14 -11 34 -20 45 -20 32 0 85 26 110 54 12 15 33 31 46
35 20 8 24 20 35 98 7 48 16 102 21 118 46 152 60 208 60 238 0 19 7 51 15 70
8 20 15 47 15 61 0 13 12 39 27 57 18 21 24 34 15 37 -6 2 -12 17 -12 33 0 21
7 32 23 40 20 9 38 3 114 -35 50 -25 95 -46 101 -46 5 0 12 9 15 20 8 30 44
25 77 -11 27 -30 30 -31 60 -19 24 10 37 10 56 1 14 -6 36 -8 49 -5 13 3 43
-1 67 -9 43 -15 144 -41 228 -59 25 -5 57 -11 73 -15 18 -3 27 -12 27 -24 0
-30 23 -32 79 -8 l51 21 35 -26 c19 -15 35 -31 35 -36 0 -15 40 -22 55 -10 7
6 52 13 99 16 82 4 86 4 102 -21 20 -30 49 -32 64 -5 11 20 11 20 40 -2 27
-19 41 -22 120 -19 53 1 90 -2 90 -7 0 -6 17 -10 38 -10 52 1 93 -11 119 -34
23 -22 43 -16 77 21 15 16 31 21 72 21 29 0 64 4 78 10 14 5 26 6 26 1 0 -17
30 -20 62 -7 27 12 29 15 12 19 -14 3 -11 5 9 6 17 1 26 -3 22 -9 -3 -6 5 -10
19 -10 13 0 26 5 28 12 6 17 28 0 28 -21 0 -17 18 -41 30 -41 4 0 12 11 18 24
10 24 52 43 52 24 0 -19 60 1 83 28 23 26 24 26 55 10 17 -9 34 -16 37 -15 3
1 19 -5 36 -11 24 -10 35 -10 54 0 12 7 28 10 33 6 6 -3 13 -2 17 3 3 6 15 7
28 2 12 -5 51 -8 86 -7 56 2 65 5 72 24 5 13 20 38 34 56 14 18 25 38 25 45 0
8 10 5 26 -8 32 -25 81 -27 112 -5 14 9 41 15 70 14 26 -1 53 -1 59 -1 11 1
53 78 53 98 0 4 4 14 9 21 6 10 16 9 45 -9 l36 -21 40 43 c21 24 39 48 40 52
0 4 16 5 36 1 40 -7 54 4 54 44 0 20 5 22 58 22 50 0 59 3 67 22 8 19 19 24
62 26 l52 3 -6 32 c-5 32 -4 33 54 47 54 14 58 17 60 45 0 17 2 36 2 44 1 7 7
11 15 8 9 -4 19 5 26 24 7 16 18 29 25 29 8 0 16 6 18 13 4 9 6 9 6 0 2 -22
27 -14 62 17 19 17 45 33 59 37 13 3 32 15 41 26 18 24 49 17 49 -10 0 -26 25
-68 37 -66 14 3 33 -50 33 -91 0 -20 3 -26 8 -18 10 15 20 -4 47 -88 10 -30
37 -90 59 -133 23 -43 62 -118 87 -168 25 -49 48 -86 52 -83 4 4 15 -13 25
-37 32 -74 99 -90 151 -37 28 29 31 37 31 99 0 37 4 70 10 74 6 4 6 15 0 31
-6 14 -10 39 -10 55 0 16 -4 29 -10 29 -5 0 -10 22 -10 49 0 28 -4 53 -10 56
-5 3 -10 30 -10 58 0 48 -2 53 -28 63 -23 9 -30 20 -40 63 -7 29 -21 64 -32
78 -11 14 -20 29 -20 34 0 5 -21 29 -46 54 -25 25 -52 62 -60 81 -8 19 -25 44
-38 55 -31 27 -27 51 13 68 24 11 31 21 29 37 -2 14 18 50 56 100 60 81 88
104 118 99 12 -3 21 7 30 31 6 19 14 34 18 35 27 4 40 10 63 32 15 13 27 29
27 35 0 6 6 17 13 24 8 7 20 27 28 43 8 17 19 30 26 30 6 0 15 3 19 8 4 4 14
7 21 7 15 0 50 30 36 30 -4 0 0 5 9 11 10 5 30 34 44 64 18 36 34 55 48 57 15
2 22 11 24 31 2 18 13 32 32 42 33 17 40 32 29 62 -5 14 -5 23 1 23 6 0 16 12
23 28 6 15 20 36 29 46 10 11 18 35 18 53 0 19 4 32 10 28 5 -3 14 14 21 37 6
23 24 61 41 84 17 24 28 51 26 64 -3 20 6 29 40 47 2 1 -2 11 -8 24 -11 20 -9
25 14 42 32 23 35 63 6 72 -26 8 -25 27 3 75 18 33 20 43 10 60 -20 31 -16 49
17 79 27 24 30 31 20 55 -5 15 -10 54 -10 87 0 33 -4 59 -10 59 -5 0 -10 11
-10 24 0 16 7 26 21 29 19 5 21 11 16 47 -3 28 -1 45 9 54 16 17 18 42 4 51
-14 9 -13 81 2 104 9 15 8 24 -6 45 -9 15 -15 35 -12 44 10 30 -11 160 -28
177 -15 15 -12 45 5 45 12 0 11 47 -1 55 -5 3 -10 14 -10 23 0 10 -9 23 -20
30 -13 8 -20 23 -20 42 0 16 -9 52 -20 80 -11 27 -18 51 -15 51 3 1 11 2 18 3
18 2 11 56 -13 88 -23 31 -26 73 -6 81 30 12 25 122 -5 115 -6 -2 -17 15 -24
37 -7 22 -24 63 -39 91 -28 53 -29 57 -20 142 5 40 2 57 -9 70 -19 21 -57 120
-57 149 0 12 -6 28 -12 35 -7 7 -13 22 -12 33 0 11 -10 31 -22 45 -12 14 -40
54 -62 90 -33 55 -42 81 -57 170 -9 58 -20 108 -23 112 -4 4 -25 1 -47 -6 -36
-13 -41 -13 -46 2 -4 10 -3 21 2 27 15 15 10 45 -8 51 -78 25 -103 43 -103 75
0 11 -11 37 -25 57 -14 20 -25 45 -25 56 0 22 -75 91 -99 91 -9 0 -17 9 -19
20 -9 60 -12 65 -42 65 -20 0 -30 5 -30 15 0 9 -12 21 -27 27 -36 15 -109 92
-122 128 -10 30 -51 77 -63 73 -5 -2 -8 3 -8 11 0 26 -39 64 -60 59 -14 -4
-21 1 -26 21 -4 18 -19 32 -48 45 -22 10 -50 28 -60 40 -11 12 -40 31 -64 41
-44 20 -45 21 -39 60 5 39 3 42 -35 66 -22 14 -49 26 -60 27 -11 1 -40 21 -65
45 -25 23 -54 47 -65 53 -10 5 -18 17 -18 25 0 12 -8 15 -37 11 -28 -4 -40 -1
-52 14 -10 12 -43 25 -91 35 -72 14 -100 31 -100 61 0 8 -13 13 -38 13 -25 0
-50 9 -72 25 -40 29 -44 30 -64 10 -14 -14 -22 -12 -85 19 -60 30 -75 33 -103
25 -48 -13 -99 -1 -130 32 -18 19 -37 29 -57 29 -16 0 -32 6 -35 13 -5 10 -7
10 -12 0 -12 -27 -67 -3 -121 53 -22 22 -63 24 -63 3 0 -20 -30 -19 -59 2 -24
18 -37 21 -71 15 -34 -5 -47 -2 -78 19 -42 29 -60 31 -88 10 -13 -10 -44 -14
-96 -15 -64 0 -82 -4 -98 -20 -14 -14 -33 -20 -68 -20 -38 0 -55 -6 -84 -30
-71 -59 -124 -58 -149 1 -6 16 -16 29 -22 29 -5 0 -27 -16 -48 -35 -46 -42
-67 -44 -103 -10 -23 22 -26 30 -20 62 3 21 14 47 24 58 10 11 23 30 29 43 6
12 21 22 32 22 12 0 48 12 80 27 46 21 59 32 59 49 0 13 15 35 36 54 33 28 35
34 25 56 -21 48 -15 57 32 50 41 -6 43 -6 54 26 6 18 14 49 18 68 4 19 14 43
22 52 11 12 13 28 9 51 -6 30 0 44 39 102 25 37 45 73 45 80 0 6 8 20 19 29
10 9 24 37 31 61 11 38 10 48 -4 69 -23 35 -20 43 14 51 30 7 31 8 25 50 -4
26 -3 45 4 49 12 8 4 33 -17 59 -12 14 -13 22 -4 42 12 27 8 50 -17 78 -16 20
-17 73 0 93 14 18 -4 49 -42 71 -22 13 -29 23 -25 39 3 11 -1 30 -10 42 -14
20 -14 24 6 49 18 23 19 28 6 42 -8 9 -31 41 -51 71 -29 44 -35 60 -31 86 6
28 2 34 -33 58 -23 16 -41 38 -44 54 -7 30 -64 72 -97 72 -21 0 -55 16 -78 38
-7 6 -19 13 -25 14 -25 3 -33 4 -54 12 -27 9 -29 19 -8 36 8 7 15 18 15 25 0
16 -125 69 -140 60 -7 -4 -23 -2 -36 5 -17 10 -27 10 -37 2 -19 -16 -53 -4
-72 24 -19 29 -31 30 -45 4z m95 -2221 c6 -9 37 -7 88 7 20 6 24 -25 7 -57
-11 -20 -45 -26 -55 -9 -3 6 -19 10 -34 10 -32 0 -56 22 -47 45 6 17 32 20 41
4z m810 -159 c11 -5 16 -9 12 -9 -4 -1 1 -11 12 -22 17 -19 24 -20 48 -11 15
6 40 13 56 16 16 4 27 13 27 24 0 14 4 13 18 -6 15 -19 26 -23 67 -21 28 1 61
-2 75 -8 18 -8 30 -7 44 3 16 11 26 10 65 -5 25 -10 73 -21 105 -25 46 -5 67
-13 93 -37 27 -23 41 -29 62 -24 27 6 134 -26 156 -46 5 -5 30 -9 56 -9 40 0
53 -5 82 -32 19 -18 36 -39 38 -47 3 -7 22 -15 43 -16 21 -2 48 -12 60 -23 28
-26 80 -52 105 -52 11 0 28 -11 36 -24 9 -13 43 -38 76 -56 42 -22 65 -42 76
-65 13 -26 33 -42 92 -71 42 -21 83 -47 92 -57 9 -11 30 -20 49 -21 32 -1 35
-5 49 -50 10 -33 26 -57 53 -78 21 -16 38 -35 38 -41 0 -7 11 -25 23 -41 23
-29 47 -29 47 -1 0 8 7 11 21 8 18 -5 20 -11 15 -42 -3 -20 -9 -46 -12 -58 -6
-20 -3 -23 25 -23 31 0 81 -39 81 -62 0 -5 5 -6 10 -3 9 6 15 -16 11 -39 -2
-12 20 -36 29 -31 13 8 40 -6 40 -21 0 -7 7 -17 15 -21 19 -11 85 -105 85
-121 0 -13 84 -175 102 -197 5 -5 39 -59 77 -120 37 -60 80 -122 94 -136 16
-16 29 -43 33 -67 3 -23 15 -49 25 -58 11 -9 19 -25 19 -35 0 -29 11 -49 27
-49 11 0 13 -6 8 -22 -13 -38 -18 -148 -7 -148 6 0 26 -29 46 -65 35 -63 35
-66 26 -132 -5 -38 -13 -84 -19 -103 -6 -19 -11 -36 -11 -37 0 -1 9 -11 21
-22 31 -28 44 -99 23 -122 -24 -27 -14 -54 21 -54 33 0 43 -21 25 -55 -9 -17
-7 -24 15 -46 14 -13 25 -33 24 -42 0 -14 -2 -13 -9 3 -7 16 -9 11 -9 -22 -1
-23 4 -43 11 -45 6 -2 15 -39 19 -84 19 -188 32 -261 51 -295 18 -32 19 -42 9
-88 -13 -63 -14 -104 -2 -97 12 8 21 -18 14 -43 -4 -16 -11 -20 -24 -16 -29
10 -32 -16 -10 -83 25 -73 25 -79 6 -98 -8 -9 -15 -26 -15 -39 0 -14 -9 -29
-20 -35 -23 -12 -25 -37 -5 -64 13 -17 12 -22 -10 -48 -26 -30 -33 -58 -15
-58 18 0 10 -40 -10 -52 -14 -9 -20 -24 -20 -48 0 -36 -11 -45 -77 -65 -19 -5
-23 -13 -23 -50 0 -33 -3 -43 -13 -39 -24 9 -38 -19 -25 -52 9 -26 7 -37 -24
-94 -28 -53 -43 -70 -82 -90 -45 -24 -46 -26 -41 -61 6 -33 4 -37 -24 -48 -20
-9 -37 -28 -50 -57 -24 -49 -27 -51 -53 -27 -17 15 -18 14 -18 -19 0 -46 -42
-100 -99 -127 -23 -12 -45 -31 -48 -41 -3 -11 -11 -20 -18 -20 -7 0 -27 -24
-43 -54 -35 -61 -79 -98 -174 -145 -65 -33 -67 -35 -62 -66 4 -28 0 -36 -29
-58 -19 -14 -53 -34 -76 -43 -24 -10 -57 -36 -82 -65 -26 -31 -53 -52 -75 -58
-18 -5 -41 -17 -50 -26 -26 -25 -57 -15 -68 23 -11 40 8 158 35 217 12 25 19
64 19 100 0 33 0 74 0 90 1 59 6 110 14 138 6 19 5 32 -3 40 -15 15 -13 48 4
71 8 11 15 35 15 53 0 26 -4 33 -20 33 -12 0 -21 8 -24 23 -19 88 -26 132 -26
161 0 24 -7 38 -29 53 -18 14 -33 39 -42 70 -10 35 -27 60 -63 93 -27 25 -81
76 -120 115 -64 63 -142 115 -173 115 -6 0 -19 7 -28 16 -9 10 -26 14 -41 11
-16 -3 -29 2 -37 14 -7 9 -26 23 -41 30 -25 12 -30 11 -46 -8 -9 -12 -33 -26
-53 -31 -30 -8 -43 -6 -79 11 -24 11 -46 25 -49 29 -11 17 -76 29 -173 33 -63
3 -104 9 -115 18 -43 36 -141 77 -182 77 -33 0 -47 5 -57 20 -14 23 -44 26
-61 6 -20 -23 -103 -39 -146 -27 -30 8 -55 5 -133 -14 -123 -31 -213 -63 -226
-80 -6 -8 -31 -17 -56 -20 -56 -7 -109 -24 -135 -41 -11 -8 -30 -14 -43 -14
-13 0 -38 -6 -55 -14 -60 -27 -107 -38 -137 -31 -17 4 -30 11 -30 16 0 14 -22
11 -34 -6 -6 -8 -23 -16 -38 -17 -16 -1 -28 -6 -28 -11 0 -22 -87 -47 -167
-47 l-82 0 -32 -39 c-37 -46 -56 -56 -76 -39 -12 10 -18 9 -29 -7 -8 -10 -14
-28 -14 -39 -1 -37 -26 -68 -71 -90 -24 -12 -43 -27 -41 -34 4 -20 -38 -152
-48 -152 -14 0 -75 -100 -89 -145 -11 -36 -51 -126 -73 -165 -32 -56 -48 -100
-48 -136 0 -22 -8 -58 -19 -80 -24 -51 -45 -251 -37 -347 5 -50 3 -82 -5 -100
-10 -22 -10 -30 3 -44 11 -13 15 -45 16 -118 2 -123 8 -152 33 -166 14 -7 19
-19 17 -37 -4 -34 -21 -33 -78 4 -41 26 -53 29 -140 30 -87 1 -96 2 -105 22
-6 13 -19 22 -32 22 -15 0 -23 7 -25 23 -3 23 -3 23 -80 10 -34 -5 -38 -3 -44
21 -4 16 -13 26 -25 26 -21 0 -44 31 -55 73 -4 17 -16 32 -31 38 -13 5 -26 16
-29 24 -4 10 -19 15 -45 15 -55 0 -88 18 -97 54 -6 24 -21 37 -72 63 -34 18
-76 33 -91 33 -22 0 -30 6 -35 25 -3 13 -12 29 -20 36 -16 13 -19 55 -4 64 6
3 10 15 10 26 0 17 -7 19 -69 19 -62 0 -72 3 -89 25 -11 14 -24 25 -30 25 -25
0 -29 65 -5 74 15 6 13 10 -10 32 -15 14 -27 28 -27 32 0 4 -18 18 -40 31 -29
18 -44 37 -57 70 -9 26 -25 55 -35 67 -10 11 -18 25 -18 30 0 6 -11 21 -25 34
-22 20 -25 32 -25 86 0 52 -3 65 -19 73 -10 6 -21 8 -23 5 -3 -2 -8 10 -12 28
-3 18 -18 44 -31 58 -36 37 -47 81 -29 115 19 38 18 55 -6 55 -23 0 -40 34
-40 79 0 15 -9 36 -19 45 -10 9 -22 37 -26 62 -3 25 -17 61 -31 81 -13 20 -24
41 -24 47 -2 146 -24 274 -54 303 -3 3 -6 22 -6 41 0 22 -7 40 -17 48 -14 9
-19 31 -21 91 -4 70 -7 80 -25 89 -19 8 -21 16 -18 53 1 24 9 61 16 81 17 48
6 65 -40 62 -44 -4 -44 8 1 58 34 37 36 43 31 92 -3 29 -9 68 -12 86 -5 21 -3
32 4 32 6 0 11 6 11 14 0 8 5 16 12 18 7 3 11 23 9 57 -2 41 4 64 25 104 14
28 22 53 18 54 -38 13 -40 26 -12 65 10 14 8 27 -10 69 -12 28 -19 55 -17 60
3 4 18 10 34 14 25 5 30 12 36 48 6 32 17 50 46 75 24 21 39 42 39 56 0 13 9
34 19 48 19 24 19 74 0 62 -5 -3 -9 4 -9 15 0 12 3 20 8 19 4 -1 16 3 27 9 11
6 25 13 30 15 6 1 8 10 6 18 -15 61 32 164 115 247 28 29 45 58 53 90 7 25 20
58 29 72 10 14 28 53 41 86 13 33 29 67 36 75 29 37 57 100 52 119 -3 11 0 19
5 18 5 -1 16 23 24 53 10 36 24 62 42 77 l27 21 -23 22 c-12 12 -19 27 -16 33
15 26 79 114 108 148 17 20 42 51 56 69 14 18 42 51 63 73 20 22 37 43 37 48
0 13 76 49 103 49 15 0 38 16 64 45 25 28 49 45 63 45 19 0 35 10 96 60 7 5
41 21 75 35 35 15 71 33 80 41 8 8 21 14 27 14 6 0 23 11 38 25 15 14 36 25
48 26 42 1 72 10 96 27 39 29 114 44 144 31 19 -9 36 -9 68 -1 24 6 57 14 74
17 17 3 44 19 59 35 23 24 37 30 71 30 55 0 74 8 74 31 0 30 28 34 60 10 16
-11 33 -21 37 -21 4 0 21 18 37 40 47 64 98 92 160 89 89 -5 135 9 158 46 18
31 21 33 49 23 17 -6 33 -17 36 -24 9 -23 33 -16 33 9 0 13 5 28 12 35 20 20
77 14 102 -10 34 -34 52 -33 62 4 9 31 12 32 64 33 30 1 69 9 86 18 28 14 33
15 44 2 14 -17 40 -20 40 -6 0 16 34 18 52 4 14 -12 19 -11 36 7 17 18 24 20
41 11 12 -7 21 -9 21 -5 0 4 9 -1 20 -11 19 -17 21 -17 33 -1 16 22 74 31 103
15 20 -10 27 -10 41 3 10 8 25 18 33 21 11 4 10 6 -5 7 -29 2 53 28 90 28 17
0 39 -3 50 -8z m541 -4044 c8 -8 36 -17 62 -21 77 -10 121 -25 132 -45 6 -11
14 -19 18 -19 27 4 44 -5 58 -32 11 -23 21 -30 35 -26 10 3 19 1 19 -3 0 -5
14 -21 31 -37 17 -15 38 -43 46 -62 8 -18 22 -35 33 -38 10 -3 32 -24 49 -48
18 -26 48 -51 76 -64 49 -23 61 -48 52 -106 -6 -34 11 -65 34 -65 5 0 18 -9
29 -20 l20 -20 -22 -33 c-13 -17 -26 -35 -31 -38 -4 -3 -15 -29 -25 -57 -10
-29 -22 -49 -25 -45 -4 3 -7 -1 -7 -9 0 -9 7 -18 15 -22 23 -8 19 -47 -6 -53
-19 -5 -21 -11 -16 -54 4 -35 2 -51 -9 -59 -8 -7 -14 -21 -14 -32 0 -11 -5
-29 -11 -40 -6 -11 -12 -32 -14 -45 -1 -14 -8 -29 -15 -33 -7 -4 -10 -12 -7
-17 4 -6 0 -19 -8 -29 -18 -24 -19 -51 -2 -57 10 -4 10 -7 0 -18 -7 -7 -13
-25 -13 -39 0 -34 -17 -50 -52 -50 -31 0 -90 -27 -153 -70 -30 -21 -48 -26
-73 -22 -18 2 -31 0 -30 -5 4 -12 -38 -64 -54 -67 -7 -2 -24 -6 -38 -9 -14 -3
-52 -9 -85 -13 -45 -5 -54 -9 -35 -13 36 -10 -95 -31 -190 -31 -41 0 -101 -3
-133 -6 -54 -5 -61 -4 -86 20 -31 30 -38 26 -60 -31 -11 -28 -19 -33 -59 -39
-27 -4 -58 -2 -76 4 -19 7 -34 8 -41 2 -19 -15 -311 -18 -410 -3 -66 9 -85 18
-85 37 0 8 -11 21 -25 30 -14 9 -23 21 -20 25 8 13 -30 20 -50 9 -11 -7 -20
-7 -24 0 -3 5 -26 10 -50 10 -61 1 -98 19 -110 53 -5 16 -17 29 -26 29 -22 0
-125 57 -142 78 -7 9 -12 26 -10 37 1 12 -7 24 -23 32 -14 7 -21 13 -17 13 11
0 -19 30 -30 30 -15 0 -72 73 -78 100 -5 24 -10 27 -36 23 -23 -3 -31 0 -38
19 -5 13 -18 32 -30 42 -26 24 -27 47 -1 69 14 11 20 29 20 56 0 23 8 48 20
64 11 14 20 31 20 39 0 7 8 25 17 38 10 14 20 47 23 75 5 45 8 50 36 58 33 10
54 41 54 81 0 13 9 33 20 46 11 13 20 29 20 37 0 18 48 66 59 59 5 -3 20 6 34
20 23 22 39 30 70 33 4 1 7 12 7 25 0 26 50 76 77 76 8 0 26 9 39 19 14 11 50
23 82 27 31 3 64 10 73 15 9 4 28 10 44 13 33 6 32 6 53 48 15 29 22 33 58 33
25 0 47 7 58 18 10 9 26 17 36 17 10 0 20 6 23 14 3 7 17 14 31 14 14 0 23 -4
21 -9 -9 -13 15 -22 29 -10 7 6 75 11 165 12 83 2 146 6 139 11 -9 5 -4 8 15
8 15 0 26 -5 25 -11 -5 -21 21 -21 39 0 25 30 83 26 83 -5 0 -16 36 -19 45 -4
4 7 12 7 25 0 13 -7 24 -5 43 10 17 14 28 17 32 9 4 -5 13 -8 21 -5 8 3 14 1
14 -3 0 -14 43 -6 73 13 17 12 36 16 52 12 20 -5 31 -1 48 19 26 29 25 29 43
11z m-2759 -1582 c-3 -3 -12 -4 -19 -1 -8 3 -5 6 6 6 11 1 17 -2 13 -5z"/>
<path d="M6238 5715 c-32 -16 -42 -17 -58 -7 -31 19 -50 15 -50 -12 0 -31 -8
-33 -170 -52 -49 -5 -63 -13 -142 -77 l-87 -72 0 -65 c-1 -79 15 -106 65 -116
27 -5 45 -1 74 15 21 11 44 21 52 21 8 0 28 11 44 25 32 28 81 40 118 31 14
-3 37 -1 53 5 55 22 170 29 213 14 24 -8 42 -10 45 -4 4 5 17 9 31 9 14 0 34
5 45 11 14 7 24 7 33 0 6 -6 32 -13 55 -17 24 -4 56 -18 70 -31 14 -13 41 -32
59 -43 24 -15 32 -27 32 -49 0 -23 5 -30 23 -33 12 -2 26 -13 32 -25 5 -12 19
-27 31 -34 26 -13 47 -53 70 -131 9 -32 20 -58 25 -58 4 0 13 -19 20 -42 23
-85 30 -99 45 -87 9 7 33 10 64 6 45 -5 53 -3 74 20 13 14 27 41 31 60 5 30
14 38 38 34 4 0 7 47 7 107 0 90 -3 112 -20 137 -11 17 -20 40 -20 51 0 14
-17 36 -44 59 -24 20 -47 47 -50 59 -3 12 -17 28 -31 34 -14 7 -30 23 -37 37
-6 14 -15 25 -20 25 -4 0 -8 7 -8 15 0 13 -28 31 -53 33 -11 2 -65 33 -117 68
-28 19 -59 31 -82 32 -21 1 -62 12 -90 26 -83 38 -134 48 -236 44 -70 -2 -106
-8 -134 -23z"/>
<path d="M4078 5525 c-13 -28 -50 -39 -95 -26 -33 10 -83 2 -120 -17 -14 -8
-24 -9 -28 -2 -9 15 -25 12 -25 -5 0 -9 -9 -15 -25 -15 -36 0 -82 -26 -120
-66 -18 -19 -50 -42 -71 -51 -73 -33 -238 -181 -295 -264 -21 -31 -44 -59 -52
-62 -7 -3 -28 -41 -46 -85 -26 -65 -33 -102 -41 -203 -10 -136 -2 -175 36
-185 32 -8 94 21 94 44 0 42 34 128 60 152 15 14 40 50 55 80 30 60 73 112 86
104 5 -3 14 6 20 20 6 13 33 39 59 57 27 18 54 47 61 63 8 17 23 33 34 35 11
2 22 7 25 11 8 13 98 60 113 60 8 0 20 14 26 30 8 26 15 30 44 30 22 0 37 6
41 15 4 12 26 15 110 15 121 0 172 -15 226 -66 62 -59 93 -61 148 -10 21 18
22 26 16 70 -4 34 -14 56 -32 73 -14 12 -21 23 -16 23 5 0 -8 11 -28 25 -20
13 -46 40 -58 60 -18 29 -28 35 -55 35 -20 0 -35 6 -39 15 -3 9 -18 15 -36 15
-23 0 -33 6 -40 25 -12 31 -18 31 -32 0z"/>
<path d="M6036 4435 c-3 -8 -14 -15 -25 -15 -11 0 -22 -9 -26 -19 -5 -17 -65
-49 -65 -35 0 3 -9 0 -20 -6 -34 -18 -27 -97 18 -191 36 -77 38 -78 75 -79 25
0 37 -5 37 -14 0 -19 28 -28 50 -16 10 6 29 10 42 10 14 0 19 3 11 8 -8 5 -3
12 16 20 32 14 38 36 44 160 3 64 1 75 -15 85 -11 7 -28 29 -39 50 -26 50 -90
76 -103 42z"/>
<path d="M4239 4359 c-8 -5 -9 -9 -4 -10 20 -1 -31 -18 -57 -18 -18 -1 -28 -6
-28 -16 0 -8 -4 -15 -10 -15 -5 0 -10 -6 -10 -13 0 -7 -10 -17 -22 -22 -21 -9
-23 -18 -26 -86 -3 -69 -1 -78 23 -103 14 -15 25 -35 25 -45 0 -22 19 -31 66
-31 25 0 34 -4 34 -16 0 -13 7 -15 32 -10 48 10 115 45 123 64 24 62 11 276
-18 294 -7 4 -27 8 -44 8 -18 0 -33 4 -33 9 0 13 -36 20 -51 10z"/>
<path d="M5049 2230 c-8 -12 -27 -22 -42 -24 -16 -2 -32 -8 -36 -15 -4 -6 -25
-13 -47 -16 -58 -6 -86 -13 -97 -24 -12 -12 -28 -107 -21 -124 6 -15 92 -49
105 -41 5 3 9 11 9 19 0 24 20 28 42 8 17 -15 41 -18 157 -21 109 -3 138 -6
148 -19 9 -11 20 -14 40 -9 63 16 92 17 114 5 21 -12 96 -17 278 -19 24 0 49
5 57 11 8 7 29 8 54 4 31 -5 46 -3 59 9 25 23 74 36 94 25 20 -11 47 14 47 44
0 20 0 20 15 1 14 -18 14 -18 15 7 0 14 -9 36 -20 49 -11 13 -23 34 -26 47 -5
19 -13 23 -44 23 -21 0 -45 -7 -53 -15 -13 -13 -17 -13 -27 0 -7 8 -16 12 -22
9 -5 -3 -20 2 -34 10 -26 18 -26 18 -39 -39 l-7 -30 -17 23 -17 23 -12 -25
c-10 -22 -16 -24 -49 -19 -21 3 -52 9 -70 13 -19 5 -35 4 -41 -2 -11 -11 -108
8 -126 24 -17 14 -34 9 -41 -12 -6 -20 -41 -28 -47 -11 -3 10 -51 22 -103 26
-47 3 -75 22 -75 50 0 28 0 28 -34 15 -22 -8 -28 -6 -42 15 -20 30 -27 31 -45
5z"/>
<path d="M3715 8960 c-3 -6 1 -7 9 -4 18 7 21 14 7 14 -6 0 -13 -4 -16 -10z"/>
</g>
</svg>
